<svg width="14" height="13" viewBox="0 0 14 13" fill="none" xmlns="http://www.w3.org/2000/svg">
<path d="M13.1286 6.35491C13.1298 6.55382 13.0519 6.74506 12.9121 6.88657C12.7723 7.02807 12.582 7.10825 12.3831 7.10945L7.63322 7.13831L7.66208 11.8882C7.66329 12.0871 7.58543 12.2784 7.44563 12.4199C7.30584 12.5614 7.11556 12.6416 6.91665 12.6428C6.71774 12.644 6.5265 12.5661 6.38499 12.4263C6.24349 12.2865 6.16331 12.0962 6.1621 11.8973L6.13325 7.14743L1.38333 7.17628C1.18443 7.17749 0.993184 7.09963 0.851679 6.95984C0.710175 6.82004 0.63 6.62976 0.628792 6.43085C0.627583 6.23195 0.70544 6.0407 0.845235 5.8992C0.985031 5.75769 1.17531 5.67752 1.37422 5.67631L6.12413 5.64745L6.09528 0.897541C6.09407 0.698632 6.17192 0.50739 6.31172 0.365886C6.45151 0.224382 6.6418 0.144207 6.8407 0.142998C7.03961 0.14179 7.23086 0.219647 7.37236 0.359442C7.51386 0.499237 7.59404 0.689519 7.59525 0.888428L7.62411 5.63834L12.374 5.60948C12.5729 5.60827 12.7642 5.68613 12.9057 5.82593C13.0472 5.96572 13.1274 6.156 13.1286 6.35491Z" fill="#A855F7"/>
</svg>
